<svg id="visual" viewBox="0 0 900 600" width="900" height="600" xmlns="http://www.w3.org/2000/svg" xmlns:xlink="http://www.w3.org/1999/xlink" version="1.1"><rect x="0" y="0" width="900" height="600" fill="#002233"></rect><path d="M0 71L12.5 68.2C25 65.3 50 59.7 75 54.8C100 50 125 46 150 44.3C175 42.7 200 43.3 225 44.3C250 45.3 275 46.7 300 46.3C325 46 350 44 375 44.5C400 45 425 48 450 49C475 50 500 49 525 53.2C550 57.3 575 66.7 600 71C625 75.3 650 74.7 675 73C700 71.3 725 68.7 750 67.8C775 67 800 68 825 69.8C850 71.7 875 74.3 887.5 75.7L900 77L900 0L887.5 0C875 0 850 0 825 0C800 0 775 0 750 0C725 0 700 0 675 0C650 0 625 0 600 0C575 0 550 0 525 0C500 0 475 0 450 0C425 0 400 0 375 0C350 0 325 0 300 0C275 0 250 0 225 0C200 0 175 0 150 0C125 0 100 0 75 0C50 0 25 0 12.5 0L0 0Z" fill="#0066FF" stroke-linecap="round" stroke-linejoin="miter"></path></svg>